<svg width="24" height="24" xmlns="http://www.w3.org/2000/svg" stroke-miterlimit="2" stroke-linejoin="round" fill-rule="evenodd" clip-rule="evenodd">

 <g>
  <title>Layer 1</title>
  <path fill="#ffffff" id="svg_1" fill-rule="nonzero" d="m9.001,10.978l-3.251,0c-0.412,0 -0.75,-0.335 -0.75,-0.752c0,-0.188 0.071,-0.375 0.206,-0.518c1.685,-1.775 4.692,-4.945 6.069,-6.396c0.189,-0.2 0.452,-0.312 0.725,-0.312c0.274,0 0.536,0.112 0.725,0.312c1.377,1.451 4.385,4.621 6.068,6.396c0.136,0.143 0.207,0.33 0.207,0.518c0,0.417 -0.337,0.752 -0.75,0.752l-3.251,0l0,9.02c0,0.531 -0.47,1.002 -1,1.002l-3.998,0c-0.53,0 -1,-0.471 -1,-1.002l0,-9.02z"/>
 </g>
</svg>